<?xml version="1.0" standalone="no"?>
<!DOCTYPE svg PUBLIC "-//W3C//DTD SVG 20010904//EN"
 "http://www.w3.org/TR/2001/REC-SVG-20010904/DTD/svg10.dtd">
<svg version="1.0" xmlns="http://www.w3.org/2000/svg"
 width="32.000000pt" height="32.000000pt" viewBox="0 0 32.000000 32.000000"
 preserveAspectRatio="xMidYMid meet">

<g transform="translate(0.000000,32.000000) scale(0.100000,-0.100000)"
fill="#000000" stroke="none">
<path d="M25 290 c-10 -16 -1 -190 10 -191 6 -1 20 0 31 0 12 1 38 -13 60 -34
39 -37 49 -38 164 -26 3 1 6 27 7 58 2 63 -16 105 -54 122 -16 8 -23 19 -23
40 0 32 -13 46 -32 35 -15 -10 -129 -11 -135 -1 -6 10 -21 9 -28 -3z m67 -28
c21 8 37 7 55 -1 19 -9 29 -9 39 0 12 9 14 4 14 -34 0 -87 -25 -112 -110 -112
l-45 0 -3 80 c-3 62 -1 77 8 68 9 -8 20 -8 42 -1z"/>
<path d="M66 200 c8 -44 20 -58 36 -42 9 9 15 9 26 0 11 -10 18 -8 33 11 11
13 19 33 19 45 0 21 -1 21 -19 -3 -16 -21 -19 -22 -25 -5 -6 16 -8 16 -23 1
-15 -14 -17 -14 -35 6 l-19 22 7 -35z"/>
</g>
</svg>
